<?xml version="1.0" encoding="UTF-8" standalone="no" ?>
<!DOCTYPE svg PUBLIC "-//W3C//DTD SVG 1.1//EN" "http://www.w3.org/Graphics/SVG/1.1/DTD/svg11.dtd">
<svg xmlns="http://www.w3.org/2000/svg" xmlns:xlink="http://www.w3.org/1999/xlink" version="1.1" width="700" height="440" viewBox="0 0 700 440" xml:space="preserve">
<desc>Sdelano: LOGOZA.RU</desc>
<defs>

                <style type="text/css">
                    @import url(http://fonts.googleapis.com/css?family=Open+Sans:100,100i,200,200i,300,300i,400,400i,500,500i,600,600i,700,700i,800,800i,900,900i)
                </style>
            
                <style type="text/css">
                    @import url(http://fonts.googleapis.com/css?family=Open+Sans:100,100i,200,200i,300,300i,400,400i,500,500i,600,600i,700,700i,800,800i,900,900i)
                </style>
            
</defs>
<rect x="0" y="0" width="100%" height="100%" fill="#ffffff"></rect>
<g transform="matrix(1 0 0 1 350 220)"  >
<g style=""   >
		<g transform="matrix(0.2 0 0 0.2 -217.83 0)"  >
<filter id="SVGID_2962" y="-20%" height="140%" x="-20%" width="140%" >
	<feGaussianBlur in="SourceAlpha" stdDeviation="0"></feGaussianBlur>
	<feOffset dx="0" dy="0" result="oBlur" ></feOffset>
	<feFlood flood-color="rgb(0,0,0)" flood-opacity="1"/>
	<feComposite in2="oBlur" operator="in" />
	<feMerge>
		<feMergeNode></feMergeNode>
		<feMergeNode in="SourceGraphic"></feMergeNode>
	</feMerge>
</filter>
<g style="filter: url(#SVGID_2962);"   >
		<g transform="matrix(1 0 0 1 -2.34 -60.1)" id="Layer_1"  >
<radialGradient id="SVGID_SVGID_1__1" gradientUnits="userSpaceOnUse" gradientTransform="matrix(1 0 0 1 0 0)"  cx="239.0625" cy="-67.4337" r="345.749" fx="239.0625" fy="-67.4337">
<stop offset="0%" style="stop-color:#FFFFFF;stop-opacity: 1"/>
<stop offset="60.42999999999999%" style="stop-color:#007FC5;stop-opacity: 1"/>
<stop offset="100%" style="stop-color:#273283;stop-opacity: 1"/>
</radialGradient>
<path style="stroke: none; stroke-width: 1; stroke-dasharray: none; stroke-linecap: butt; stroke-dashoffset: 0; stroke-linejoin: miter; stroke-miterlimit: 4; fill: url(#SVGID_SVGID_1__1); fill-rule: nonzero; opacity: 1;"  transform=" translate(-253.66, -195.9)" d="M 369.4 44.6 l 18.4 17.9 L 245.2 197 c -10.1 9.6 -26.1 9.1 -35.7 -1 L 199 184.8 c -14.5 -15.4 -38.7 -15.9 -53.9 -1.2 l -70.6 68.3 c -4.3 4.1 -11.2 0.7 -10.7 -5.2 c 6.9 -77.7 72.4 -138.9 151.8 -138.9 c 29.7 0 57.4 8.6 80.9 23.4 l 46.9 -44.3 C 300.9 55.3 246.5 39 188.3 46.3 C 87.7 58.7 8.6 141.6 0.7 242.7 c -2 25.7 0.4 50.5 6.8 73.9 c 2.5 9.3 5.7 18.4 9.3 27.1 c 6.8 16.2 28.1 20.2 40.7 7.9 l 22.5 -21.8 l 76.8 -74.3 c 7.6 -7.3 19.7 -7.1 27 0.6 l 23.2 24.6 c 9.6 10.1 25.5 10.6 35.7 1.1 L 507.3 33 L 369.4 44.6 z" stroke-linecap="round" />
</g>
		<g transform="matrix(1 0 0 1 25.22 3.95)" id="Layer_1"  >
<radialGradient id="SVGID_SVGID_2__2" gradientUnits="userSpaceOnUse" gradientTransform="matrix(1 0 0 1 0 0)"  cx="271.3303" cy="88.6374" r="322.6375" fx="271.3303" fy="88.6374">
<stop offset="0%" style="stop-color:#FFFFFF;stop-opacity: 1"/>
<stop offset="48.66%" style="stop-color:#A093E1;stop-opacity: 1"/>
<stop offset="100%" style="stop-color:#6A5ACD;stop-opacity: 1"/>
</radialGradient>
<path style="stroke: none; stroke-width: 1; stroke-dasharray: none; stroke-linecap: butt; stroke-dashoffset: 0; stroke-linejoin: miter; stroke-miterlimit: 4; fill: url(#SVGID_SVGID_2__2); fill-rule: nonzero; opacity: 1;"  transform=" translate(-281.22, -259.95)" d="M 202.8 288.4 l -23.2 -24.6 c -4.8 -5.1 -12.9 -5.3 -18 -0.4 l -78 75.4 l -21.5 20.8 c -14.9 14.4 -15.7 38.4 -1.3 53.3 c 5.2 5.4 10.7 10.6 16.5 15.4 c 37.5 31.5 85.9 50.6 138.7 50.6 c 118.8 0 215.5 -96.7 215.5 -215.5 c 0 -14.9 -1.6 -29.4 -4.4 -43.5 l -59.3 56 c -6.4 78.2 -72.1 139.9 -151.9 139.9 c -25.7 0 -49.9 -6.4 -71.2 -17.7 c -11.5 -6.1 -13.9 -21.5 -4.6 -30.5 l 19.5 -18.8 c 5.1 -4.9 13.1 -4.7 18 0.4 l 18.4 19.5 c 14.4 15.2 38.3 15.9 53.6 1.5 l 225.3 -212.6 l 18.3 21.4 l 18.8 -138 L 247.4 289.7 C 234.7 301.7 214.8 301.1 202.8 288.4 z" stroke-linecap="round" />
</g>
		<g transform="matrix(1 0 0 1 115.55 -123)" id="Layer_1"  >
<radialGradient id="SVGID_SVGID_3__3" gradientUnits="userSpaceOnUse" gradientTransform="matrix(1 0 0 1 0 0)"  cx="225.8812" cy="295.1143" r="232.1642" fx="225.8812" fy="295.1143">
<stop offset="0%" style="stop-color:#FFFFFF;stop-opacity: 1"/>
<stop offset="60.42999999999999%" style="stop-color:#007FC5;stop-opacity: 1"/>
<stop offset="100%" style="stop-color:#273283;stop-opacity: 1"/>
</radialGradient>
<path style="stroke: none; stroke-width: 1; stroke-dasharray: none; stroke-linecap: butt; stroke-dashoffset: 0; stroke-linejoin: miter; stroke-miterlimit: 4; fill: url(#SVGID_SVGID_3__3); fill-rule: nonzero; opacity: 1;"  transform=" translate(-371.55, -133)" d="M 253.3 198 c 14.4 7.7 27.9 16.9 40.4 27.2 L 489.8 40.8 l -106 8.9 L 397 62.5 L 253.3 198 z" stroke-linecap="round" />
</g>
		<g transform="matrix(1 0 0 1 -82.45 -127.9)" id="Layer_1"  >
<radialGradient id="SVGID_SVGID_4__4" gradientUnits="userSpaceOnUse" gradientTransform="matrix(1 0 0 1 0 0)"  cx="162.015" cy="116.9538" r="173.7791" fx="162.015" fy="116.9538">
<stop offset="0%" style="stop-color:#FFFFFF;stop-opacity: 1"/>
<stop offset="5.3441410000000005%" style="stop-color:#E2F0F8;stop-opacity: 1"/>
<stop offset="20.9%" style="stop-color:#93C9E6;stop-opacity: 1"/>
<stop offset="34.73%" style="stop-color:#54A9D8;stop-opacity: 1"/>
<stop offset="46.339999999999996%" style="stop-color:#2692CE;stop-opacity: 1"/>
<stop offset="55.26%" style="stop-color:#0A84C7;stop-opacity: 1"/>
<stop offset="60.42999999999999%" style="stop-color:#007FC5;stop-opacity: 1"/>
<stop offset="100%" style="stop-color:#273283;stop-opacity: 1"/>
</radialGradient>
<path style="stroke: none; stroke-width: 1; stroke-dasharray: none; stroke-linecap: butt; stroke-dashoffset: 0; stroke-linejoin: miter; stroke-miterlimit: 4; fill: url(#SVGID_SVGID_4__4); fill-rule: nonzero; opacity: 1;"  transform=" translate(-173.55, -128.1)" d="M 80.9 176.6 c 28.3 -45.1 78.7 -75.2 134.7 -75.2 c 28.2 0 55.8 7.5 80.1 21.8 l 37.8 -35.8 C 298.6 63.5 258 50.9 215.6 50.9 c -8.8 0 -17.7 0.6 -26.5 1.6 C 104.2 63.1 35.3 124.9 13.6 205.3 C 34.2 192.5 56.9 182.7 80.9 176.6 z" stroke-linecap="round" />
</g>
		<g transform="matrix(1 0 0 1 138.45 55.55)" id="Layer_1"  >
<radialGradient id="SVGID_SVGID_5__5" gradientUnits="userSpaceOnUse" gradientTransform="matrix(1 0 0 1 0 0)"  cx="450.4496" cy="284.2194" r="128.4737" fx="450.4496" fy="284.2194">
<stop offset="0%" style="stop-color:#FFFFFF;stop-opacity: 1"/>
<stop offset="49.2%" style="stop-color:#A093E1;stop-opacity: 1"/>
<stop offset="100%" style="stop-color:#6A5ACD;stop-opacity: 1"/>
</radialGradient>
<path style="stroke: none; stroke-width: 1; stroke-dasharray: none; stroke-linecap: butt; stroke-dashoffset: 0; stroke-linejoin: miter; stroke-miterlimit: 4; fill: url(#SVGID_SVGID_5__5); fill-rule: nonzero; opacity: 1;"  transform=" translate(-394.45, -311.55)" d="M 373.9 278.9 c -1.4 14.8 -5 29 -10.2 42.3 c 9.4 21.8 15.7 45.1 18.2 69.4 c 27.1 -35.3 43.3 -79.4 43.3 -127.3 c 0 -10.2 -0.8 -20.5 -2.3 -30.8 L 373.9 278.9 z" stroke-linecap="round" />
</g>
		<g transform="matrix(1 0 0 1 149.8 -88.55)" id="Layer_1"  >
<radialGradient id="SVGID_SVGID_6__6" gradientUnits="userSpaceOnUse" gradientTransform="matrix(1 0 0 1 0 0)"  cx="225.8811" cy="295.1146" r="232.1636" fx="225.8811" fy="295.1146">
<stop offset="0%" style="stop-color:#FFFFFF;stop-opacity: 1"/>
<stop offset="39.879999999999995%" style="stop-color:#A093E1;stop-opacity: 1"/>
<stop offset="100%" style="stop-color:#6A5ACD;stop-opacity: 1"/>
</radialGradient>
<path style="stroke: none; stroke-width: 1; stroke-dasharray: none; stroke-linecap: butt; stroke-dashoffset: 0; stroke-linejoin: miter; stroke-miterlimit: 4; fill: url(#SVGID_SVGID_6__6); fill-rule: nonzero; opacity: 1;"  transform=" translate(-405.8, -167.45)" d="M 308.2 241.3 c 11.4 11 21.7 23 30.8 35.9 l 136.5 -128.8 l 13.4 15.7 l 14.5 -106.4 L 308.2 241.3 z" stroke-linecap="round" />
</g>
</g>
</g>
		<g transform="matrix(1 0 0 1 55.17 0)" style="filter: url(#SVGID_2963);"  >
<filter id="SVGID_2963" y="-20%" height="140%" x="-20%" width="140%" >
	<feGaussianBlur in="SourceAlpha" stdDeviation="0"></feGaussianBlur>
	<feOffset dx="0" dy="0" result="oBlur" ></feOffset>
	<feFlood flood-color="rgb(0,0,0)" flood-opacity="1"/>
	<feComposite in2="oBlur" operator="in" />
	<feMerge>
		<feMergeNode></feMergeNode>
		<feMergeNode in="SourceGraphic"></feMergeNode>
	</feMerge>
</filter>
		<text xml:space="preserve" font-family="Open Sans" font-size="48" font-style="normal" font-weight="700" style="stroke: rgb(44,47,77); stroke-width: 0; stroke-dasharray: none; stroke-linecap: butt; stroke-dashoffset: 0; stroke-linejoin: round; stroke-miterlimit: 4; fill: rgb(72,61,139); fill-rule: nonzero; opacity: 1; white-space: pre;" paint-order="stroke"  ><tspan x="-212.65" y="15.08" >НекстАналитика</tspan></text>
</g>
</g>
</g>
</svg>